{"title":"Inglorious Basterds 2009.x264.AC3(5.1).Multi_Sub.mkv","uid":5419152,"size":1244861717,"categoryP":"video","categoryS":"movies","magnet":"?xt=urn:btih:ef302cc30c8f70d376c2751cdeb6a84008387bee&amp;dn=Inglorious+Basterds+2009.x264.AC3%285.1%29.Multi_Sub.mkv&amp;tr=udp%3A%2F%2Ftracker.openbittorrent.com%3A80&amp;tr=udp%3A%2F%2Fopen.demonii.com%3A1337&amp;tr=udp%3A%2F%2Ftracker.coppersurfer.tk%3A6969&amp;tr=udp%3A%2F%2Fexodus.desync.com%3A6969","seeders":11,"leechers":0,"uploader":"Zen_Bud","files":-1,"time":1268035200,"description":"General\nComplete name                    : Inglorious Basterds.mkv\nFormat                           : Matroska\nFile size                        : 1.16 GiB\nDuration                         : 2h 26mn\nOverall bit rate                 : 1 132 Kbps\n\n\nVideo\nID                               : 1\nFormat                           : AVC\nDuration                         : 2h 26mn\nBit rate                         : 726 Kbps\nWidth                            : 720 pixels\nHeight                           : 428 pixels\nDisplay aspect ratio             : 2.35:1\nOriginal display aspect ratio    : 2.35:1\nFrame rate                       : 25.000 fps\nResolution                       : 8 bits\nColorimetry                      : 4:2:0\nScan type                        : Progressive\nBits/(Pixel*Frame)               : 0.094\nStream size                      : 761 MiB (64%)\nWriting library                  : x264 core 79\n\nAudio\nID                               : 2\nFormat                           : AC-3\nFormat/Info                      : Audio Coding 3\nCodec ID                         : A_AC3\nDuration                         : 2h 26mn\nBit rate mode                    : Constant\nBit rate                         : 384 Kbps\nChannel(s)                       : 6 channels\nChannel positions                : Front: L C R, Surround: L R, LFE\nSampling rate                    : 48.0 KHz\nStream size                      : 403 MiB (34%)\nLanguage                         : English\n\nText #1\nLanguage                         : English\n\nText #2\nLanguage                         : Hungarian\n\nText #3\nLanguage                         : Arabic\n\nText #4\nLanguage                         : Danish\n\nText #5\nLanguage                         : Finnish\n\nText #6\nLanguage                         : Icelandic\n\nText #7\nLanguage                         : Norwegian\n\nText #8\nLanguage                         : Swedish\n\nMenu\n00:00:00.000                     : Chapter  1\n\n\n","torrent":{"xt":"urn:btih:ef302cc30c8f70d376c2751cdeb6a84008387bee","amp;dn":"Inglorious+Basterds+2009.x264.AC3%285.1%29.Multi_Sub.mkv","amp;tr":["udp%3A%2F%2Ftracker.openbittorrent.com%3A80","udp%3A%2F%2Fopen.demonii.com%3A1337","udp%3A%2F%2Ftracker.coppersurfer.tk%3A6969","udp%3A%2F%2Fexodus.desync.com%3A6969"],"infoHash":"ef302cc30c8f70d376c2751cdeb6a84008387bee","infoHashBuffer":{"type":"Buffer","data":[239,48,44,195,12,143,112,211,118,194,117,28,222,182,168,64,8,56,123,238]},"announce":[],"urlList":[]}}